# AST/ASF file generated using VICON BodyLanguage
# -----------------------------------------------
:version 1.10
:name VICON
:units
  mass 1.0
  length 0.45
  angle deg
:documentation
   .ast/.asf automatically generated from VICON data using
   VICON BodyBuilder and BodyLanguage model FoxedUp or BRILLIANT.MOD
:root
   order TX TY TZ RX RY RZ
   axis XYZ
   position 0 0 0  
   orientation 0 0 0 
:bonedata
  begin
     id 1 
     name lhipjoint
     direction 0.57768 -0.667037 0.470475 
     length 2.36008 
     axis 0 0 0  XYZ
  end
  begin
     id 2 
     name lfemur
     direction 0.34202 -0.939693 0  
     length 6.97235  
     axis 0 0 20  XYZ
    dof rx ry rz
    limits (-160.0 20.0)
           (-70.0 70.0)
           (-60.0 70.0)
  end
  begin
     id 3 
     name ltibia
     direction 0.34202 -0.939693 0   
     length 6.93428   
     axis 0 0 20   XYZ
    dof rx
    limits (-10.0 170.0)
  end
  begin
     id 4 
     name lfoot
     direction 0.133018 -0.365463 0.921272   
     length 2.18603   
     axis -90 7.62852e-016 20   XYZ
    dof rx rz
    limits (-45.0 90.0)
           (-70.0 20.0)
  end
  begin
     id 5 
     name ltoes
     direction 1.53519e-011 -4.22055e-011 1   
     length 1.07924   
     axis -90 7.62852e-016 20   XYZ
    dof rx
    limits (-90.0 20.0)
  end
  begin
     id 6 
     name rhipjoint
     direction -0.577712 -0.667019 0.470462   
     length 2.36015  
     axis 0 0 0  XYZ 
  end
  begin
     id 7 
     name rfemur
     direction -0.34202 -0.939693 0   
     length 6.71195   
     axis 0 0 -20   XYZ
    dof rx ry rz
    limits (-160.0 20.0)
           (-70.0 70.0)
           (-70.0 60.0)
  end
  begin
     id 8 
     name rtibia
     direction -0.34202 -0.939693 0   
     length 7.04592   
     axis 0 0 -20   XYZ
    dof rx
    limits (-10.0 170.0)
 end
 begin
     id 9 
     name rfoot
     direction -0.113796 -0.312651 0.943027   
     length 2.03846  
     axis -90 -7.62852e-016 -20   XYZ
    dof rx rz
    limits (-45.0 90.0)
           (-20.0 70.0)
  end
  begin
     id 10 
     name rtoes
     direction -1.53586e-011 -4.218e-011 1   
     length 1.01562   
     axis -90 -7.62852e-016 -20   XYZ
    dof rx
    limits (-90.0 20.0)
  end
  begin
     id 11 
     name lowerback
     direction -0.0417299 0.991937 -0.119667   
     length 2.05257   
     axis 0 0 0   XYZ
    dof rx ry rz
    limits (-20.0 45.0)
           (-30.0 30.0)
           (-30.0 30.0)
  end
  begin
     id 12 
     name upperback
     direction -0.00017666 0.999999 0.00105178   
     length 2.05693   
     axis 0 0 0   XYZ
    dof rx ry rz
    limits (-20.0 45.0)
           (-30.0 30.0)
           (-30.0 30.0)
  end
  begin
     id 13 
     name thorax
     direction 0.0185169 0.998203 0.0569866   
     length 2.0932   
     axis 0 0 0   XYZ
    dof rx ry rz
    limits (-20.0 45.0)
           (-30.0 30.0)
           (-30.0 30.0)
  end
  begin
     id 14 
     name lowerneck
     direction -0.0212406 0.982645 0.184277   
     length 1.72509   
     axis 0 0 0   XYZ
    dof rx ry rz
    limits (-20.0 45.0)
           (-30.0 30.0)
           (-30.0 30.0)
  end
  begin
     id 15 
     name upperneck
     direction 0.00528579 0.965323 -0.261004   
     length 1.76294   
     axis 0 0 0   XYZ
    dof rx ry rz
    limits (-20.0 45.0)
           (-30.0 30.0)
           (-30.0 30.0)
  end
  begin
     id 16
     name head
     direction 0.00695421 0.994078 -0.108445  
     length 1.78678  
     axis 0 0 0   XYZ
    dof rx ry rz
    limits (-20.0 45.0)
           (-30.0 30.0)
           (-30.0 30.0)
  end
  begin
     id 17 
     name lclavicle
     direction 0.97277 0.211305 -0.095232  
     length 3.84823  
     axis 0 0 0   XYZ
    dof ry rz
    limits (-20.0 10.0)
           (0.0 20.0)
  end
  begin
     id 18 
     name lhumerus
     direction 1 -4.48957e-011 -1.98313e-027   
     length 4.97185   
     axis 180 -30 -90   XYZ
    dof rx ry rz
    limits (-60.0 90.0)
           (-90.0 90.0)
           (-90.0 90.0)
  end
  begin
     id 19
     name lradius
     direction 1 -4.4898e-011 7.31063e-027   
     length 3.35811   
     axis 180 -30 -90   XYZ
    dof rx
    limits (-10.0 170.0)
  end
  begin
     id 20
     name lwrist
     direction 1 -4.48938e-011 9.95048e-027   
     length 1.67905   
     axis -8.75986e-015 90 90   XYZ
    dof ry
    limits (-180.0 0.0)
 end
  begin
     id 21 
     name lhand
     direction 1 -4.4901e-011 1.9901e-026   
     length 0.622776   
     axis -1.26985e-014 90 90   XYZ
    dof rx rz
    limits (-90.0 90.0)
           (-45.0 45.0)
  end
  begin
     id 22 
     name lfingers
     direction 1 -4.48961e-011 3.98019e-026   
     length 0.502098   
     axis -2.5397e-014 90 90   XYZ
    dof rx
    limits (0.0 90.0)
  end
  begin
     id 23
     name lthumb
     direction 0.707107 -6.34933e-011 0.707107   
     length 0.720915   
     axis -90 45 2.85299e-015   XYZ
    dof rx rz
    limits (-45.0 45.0)
           (-45.0 45.0)
  end
  begin
     id 24 
     name rclavicle
     direction -0.990867 0.133739 -0.0172226   
     length 3.78845  
     axis 0 0 0   XYZ 
    dof ry rz
    limits (-10.0 20.0)
           (-20.0 0.0)
  end
  begin
     id 25 
     name rhumerus
     direction -1 -4.48972e-011 -1.99267e-027  
     length 4.96493   
     axis 180 30 90   XYZ
    dof rx ry rz
    limits (-90.0 60.0)
           (-90.0 90.0)
           (-90.0 90.0)
  end
  begin
     id 26 
     name rradius
     direction -1 -4.48969e-011 8.96093e-027   
     length 3.34929   
     axis 180 30 90   XYZ
    dof rx
    limits (-10.0 170.0)
  end
  begin
     id 27 
     name rwrist
     direction -1 -4.48953e-011 9.95048e-027   
     length 1.67464   
     axis -8.75986e-015 -90 -90   XYZ
    dof ry
    limits (-180.0 0.0)
  end
  begin
     id 28
     name rhand
     direction -1 -4.49001e-011 1.9901e-026   
     length 0.638041   
     axis -1.26985e-014 -90 -90   XYZ
    dof rx rz
    limits (-90.0 90.0)
           (-45.0 45.0)
  end
  begin
     id 29
     name rfingers
     direction -1 -4.48967e-011 3.98019e-026   
     length 0.514405   
     axis -2.5397e-014 -90 -90   XYZ
    dof rx
    limits (0.0 90.0)
  end
  begin
     id 30
     name rthumb
     direction -0.707107 -6.34904e-011 0.707107   
     length 0.738586   
     axis -90 -45 -2.85299e-015   XYZ
    dof rx rz
    limits (-45.0 45.0)
           (-45.0 45.0)
  end
:hierarchy
  begin
    root lhipjoint rhipjoint lowerback
    lhipjoint lfemur
    lfemur ltibia
    ltibia lfoot
    lfoot ltoes
    rhipjoint rfemur
    rfemur rtibia
    rtibia rfoot
    rfoot rtoes
    lowerback upperback
    upperback thorax
    thorax lowerneck lclavicle rclavicle
    lowerneck upperneck
    upperneck head
    lclavicle lhumerus
    lhumerus lradius
    lradius lwrist
    lwrist lhand lthumb
    lhand lfingers
    rclavicle rhumerus
    rhumerus rradius
    rradius rwrist
    rwrist rhand rthumb
    rhand rfingers
  end

#!OML:ASF E:\Mandelcareful walks\Project 1\Capture day 1\Session 1\Subject1.ASF
:FULLY-SPECIFIED
:DEGREES
399
root -5.65621 15.2428 0.591776 -498.871 82.4343 -516.218
lowerback 26.9049 3.85517 -7.22602
upperback 7.47902 3.48178 -4.40376
thorax -6.583 2.04867 -1.88578
lowerneck -20.9279 17.9144 12.2135
upperneck 14.9143 27.756 -24.4486
head 14.2082 10.9348 -5.06582
rclavicle -2.3059e-014 5.32743e-014
rhumerus -23.0369 4.09494 -91.5052
rradius 31.9709
rwrist -54.8489
rhand 14.6311 -39.8089
rfingers 7.12502
rthumb 39.5043 -65.1826
lclavicle -2.3059e-014 5.32743e-014
lhumerus 61.1346 -88.2383 30.3057
lradius 56.9665
lwrist 7.14122
lhand -9.57174 -7.21451
lfingers 7.12502
lthumb 16.396 22.1125
rfemur -47.8168 -11.534 11.5956
rtibia 59.6171
rfoot -16.2719 -10.8228
rtoes -13.401
lfemur -54.6038 14.5458 -23.3076
ltibia 65.4895
lfoot -25.5333 2.10287
ltoes 2.10945
400
root -5.61223 15.2458 0.6907 -504.215 81.3207 -521.495
lowerback 27.1399 3.73777 -7.13338
upperback 7.38138 3.3306 -4.42919
thorax -6.79882 1.98364 -1.93909
lowerneck -20.6489 17.8144 12.6044
upperneck 15.0165 27.5535 -24.4474
head 14.2157 10.8855 -5.20189
rclavicle -1.90833e-014 4.21423e-014
rhumerus -23.1023 4.78717 -91.658
rradius 32.1569
rwrist -55.2113
rhand 15.3211 -37.0958
rfingers 7.12502
rthumb 40.1538 -62.2753
lclavicle -1.90833e-014 4.21423e-014
lhumerus 71.2644 -88.7508 19.807
lradius 56.3879
lwrist 3.93473
lhand -14.7862 -8.85307
lfingers 7.12502
lthumb 11.3709 20.8186
rfemur -48.0622 -11.214 11.2711
rtibia 59.1377
rfoot -16.5904 -9.30746
rtoes -12.5431
lfemur -54.397 13.9866 -23.024
ltibia 65.3188
lfoot -25.1402 1.46328
ltoes 2.18345
401
root -5.57286 15.2478 0.793167 -508.572 80.0304 -525.907
lowerback 27.4079 3.6016 -6.82233
upperback 7.16416 3.18872 -4.45545
thorax -7.15907 1.91851 -2.1276
lowerneck -20.0919 17.574 12.9103
upperneck 15.002 27.181 -24.4907
head 14.0801 10.7937 -5.40879
rclavicle -3.10104e-014 -4.53229e-014
rhumerus -23.4364 4.96033 -91.7448
rradius 32.4285
rwrist -55.1983
rhand 17.9911 -33.4565
rfingers 7.12502
rthumb 42.6592 -57.8217
lclavicle -3.10104e-014 -4.53229e-014
lhumerus 27.6632 -89.0051 63.2912
lradius 57.051
lwrist 5.83804
lhand -14.3728 -8.67576
lfingers 7.12502
lthumb 11.7697 20.9736
rfemur -48.4012 -11.0365 10.972
rtibia 58.5014
rfoot -16.965 -7.52716
rtoes -12.3201
lfemur -54.3784 13.2658 -22.7553
ltibia 65.162
lfoot -24.7065 0.80312
ltoes 2.26678
402
root -5.5273 15.2477 0.901556 -511.121 78.9475 -528.398
lowerback 27.6533 3.49842 -6.66628
upperback 7.16628 3.09485 -4.34192
thorax -7.27591 1.87767 -2.07425
lowerneck -20.4684 17.4924 12.2915
upperneck 15.0843 27.1832 -24.288
head 14.0446 10.7494 -5.22564
rclavicle 1.11319e-014 -8.90555e-014
rhumerus -23.3862 5.53447 -91.6365
rradius 32.7223
rwrist -55.1011
rhand 15.1053 -36.2145
rfingers 7.12502
rthumb 39.9508 -61.4554
lclavicle 1.11319e-014 -8.90555e-014
lhumerus 4.15333 -86.916 86.9359
lradius 57.5209
lwrist 1.39711
lhand -11.4177 -8.62189
lfingers 7.12502
lthumb 14.6181 20.8429
rfemur -48.6894 -10.4306 10.7134
rtibia 57.7425
rfoot -17.4555 -5.79317
rtoes -12.1461
lfemur -54.2554 12.9777 -22.4181
ltibia 65.0012
lfoot -24.258 0.0365785
ltoes 2.4973
403
root -5.4816 15.2463 1.01259 -512.294 78.1026 -529.449
lowerback 27.724 3.56866 -6.4071
upperback 7.25236 3.27322 -4.35117
thorax -7.20383 1.9665 -2.29165
lowerneck -20.7326 17.4012 12.2542
upperneck 15.0813 27.0799 -24.3716
head 14.0882 10.6801 -5.26556
rclavicle -8.74653e-015 5.48646e-014
rhumerus -23.1909 5.66048 -91.6138
rradius 32.9927
rwrist -54.9943
rhand 14.0162 -37.1511
rfingers 7.12502
rthumb 38.9248 -62.6927
lclavicle -8.74653e-015 5.48646e-014
lhumerus 5.0561 -86.8544 85.7849
lradius 58.0729
lwrist 1.65625
lhand -8.37782 -7.56703
lfingers 7.12502
lthumb 17.5453 21.6613
rfemur -49.0532 -9.50279 10.5535
rtibia 56.9916
rfoot -17.791 -4.48119
rtoes -11.6524
lfemur -54.0785 12.9467 -21.9629
ltibia 64.8575
lfoot -23.8851 -0.649327
ltoes 3.14252
404
root -5.43045 15.2494 1.13245 -514.421 76.7698 -531.438
lowerback 27.8167 3.48687 -5.9818
upperback 7.29548 3.29693 -4.39868
thorax -7.17948 1.98281 -2.59786
lowerneck -20.3568 17.2359 12.8282
upperneck 14.9059 26.7886 -24.7504
head 14.0585 10.6046 -5.59256
rclavicle 3.4191e-014 7.15625e-015
rhumerus -23.3327 5.79773 -91.7881
rradius 33.4356
rwrist -55.1834
rhand 13.3632 -36.9754
rfingers 7.12502
rthumb 38.3088 -62.69
lclavicle 3.4191e-014 7.15625e-015
lhumerus 1.88166 -87.0594 88.6194
lradius 58.5232
lwrist 1.58675
lhand -7.17332 -7.00114
lfingers 7.12502
lthumb 18.7041 22.1196
rfemur -49.1458 -9.00702 10.3051
rtibia 56.4131
rfoot -18.0131 -3.81796
rtoes -10.9777
lfemur -53.8231 12.3616 -21.4904
ltibia 64.6754
lfoot -23.5917 -1.20658
ltoes 3.37012
405
root -5.38922 15.2416 1.26048 -516.53 75.2673 -533.566
lowerback 28.0749 3.16349 -5.81298
upperback 7.41753 2.95833 -4.18349
thorax -7.17253 1.82891 -2.34979
lowerneck -21.159 17.3527 12.147
upperneck 14.9976 27.1296 -24.686
head 14.2069 10.6511 -5.32255
rclavicle -5.56597e-015 3.81667e-014
rhumerus -23.1696 7.27527 -91.6573
rradius 34.0771
rwrist -55.7783
rhand 12.4844 -37.3091
rfingers 7.12502
rthumb 37.4787 -63.2483
lclavicle -5.56597e-015 3.81667e-014
lhumerus 3.02443 -86.1682 87.4574
lradius 58.8501
lwrist 1.14602
lhand -8.25729 -6.88429
lfingers 7.12502
lthumb 17.6613 22.3336
rfemur -49.3725 -8.73098 9.96467
rtibia 56.1604
rfoot -18.0681 -3.52578
rtoes -10.1075
lfemur -53.8736 11.5216 -21.1463
ltibia 64.4884
lfoot -23.2969 -1.47289
ltoes 2.25478
406
root -5.3528 15.2279 1.40129 -518.497 73.338 -535.627
lowerback 28.7628 2.97988 -5.04937
upperback 7.07176 2.84396 -4.20021
thorax -7.87074 1.76709 -2.82788
lowerneck -20.8627 17.083 12.6144
upperneck 15.3442 26.7317 -24.6407
head 14.2717 10.5181 -5.5235
rclavicle -5.1684e-014 6.44062e-014
rhumerus -23.9171 6.75465 -91.604
rradius 34.7128
rwrist -55.7822
rhand 11.8341 -39.4593
rfingers 7.12502
rthumb 36.8638 -65.5588
lclavicle -5.1684e-014 6.44062e-014
lhumerus -7.47612 -86.8703 97.7158
lradius 59.2553
lwrist 2.1424
lhand -12.072 -7.43598
lfingers 7.12502
lthumb 13.9876 22.0734
rfemur -49.4781 -8.79546 9.69544
rtibia 56.3285
rfoot -18.2365 -3.98795
rtoes -10.2496
lfemur -54.0796 10.2716 -20.7749
ltibia 64.2527
lfoot -22.934 -1.64193
ltoes 0.729576
407
root -5.31048 15.2198 1.55263 -520.165 71.1444 -537.32
lowerback 29.4537 2.63086 -4.384
upperback 6.93163 2.55347 -4.04385
thorax -8.35465 1.62483 -2.98146
lowerneck -20.9458 16.981 12.6093
upperneck 15.4871 26.6716 -24.6971
head 14.3489 10.48 -5.56259
rclavicle 2.06736e-014 2.14687e-014
rhumerus -24.3961 6.526 -91.4786
rradius 35.2622
rwrist -55.472
rhand 11.559 -41.3259
rfingers 7.12502
rthumb 36.6035 -67.4919
lclavicle 2.06736e-014 2.14687e-014
lhumerus -15.6553 -87.5124 105.678
lradius 59.4371
lwrist 4.73721
lhand -15.5232 -8.58858
lfingers 7.12502
lthumb 10.6601 21.121
rfemur -49.2797 -9.12374 9.56475
rtibia 56.9492
rfoot -18.4995 -5.10215
rtoes -10.9267
lfemur -54.1802 8.91679 -20.3379
ltibia 63.9335
lfoot -22.506 -1.988
ltoes -0.151863
408
root -5.26744 15.2192 1.71014 -521.591 68.8949 -538.873
lowerback 29.9342 2.29829 -3.79583
upperback 6.85678 2.29611 -3.89764
thorax -8.66662 1.49985 -3.09429
lowerneck -21.1435 16.9284 12.5336
upperneck 15.6719 26.6575 -24.6276
head 14.4356 10.4538 -5.52423
rclavicle 4.25399e-014 -1.66979e-014
rhumerus -24.9458 6.45704 -91.4063
rradius 36.0214
rwrist -55.3552
rhand 11.8355 -39.1177
rfingers 7.12502
rthumb 36.8651 -65.217
lclavicle 4.25399e-014 -1.66979e-014
lhumerus -20.9841 -87.5914 110.832
lradius 59.3681
lwrist 3.72941
lhand -17.7139 -9.11792
lfingers 7.12502
lthumb 8.54648 20.6891
rfemur -48.9668 -9.68044 9.50673
rtibia 57.7749
rfoot -18.7727 -6.321
rtoes -12.3498
lfemur -54.3924 7.65238 -20.0276
ltibia 63.5439
lfoot -22.0584 -2.35072
ltoes -1.26687
